<?xml version="1.0" encoding="UTF-8" standalone="no"?><!DOCTYPE svg PUBLIC "-//W3C//DTD SVG 1.1//EN" "http://www.w3.org/Graphics/SVG/1.1/DTD/svg11.dtd"><svg width="100%" height="100%" viewBox="0 0 16 16" version="1.1" xmlns="http://www.w3.org/2000/svg" xmlns:xlink="http://www.w3.org/1999/xlink" xml:space="preserve" xmlns:serif="http://www.serif.com/" style="fill-rule:evenodd;clip-rule:evenodd;stroke-linejoin:round;stroke-miterlimit:2;"><rect id="Fav-Icon" serif:id="Fav Icon" x="0" y="0" width="16" height="16" style="fill:none;"/><g id="icon2"><g id="Sirkuit"><path d="M13.885,4.1l-0.827,0l0,-0.248l0.829,-0c0.053,-0.16 0.203,-0.275 0.381,-0.275c0.221,0 0.401,0.18 0.401,0.401c0,0.221 -0.18,0.401 -0.401,0.401c-0.179,0 -0.331,-0.117 -0.382,-0.279Zm0.382,-0.313c-0.105,0 -0.191,0.086 -0.191,0.191c0,0.105 0.086,0.191 0.191,0.191c0.105,0 0.191,-0.086 0.191,-0.191c0,-0.105 -0.086,-0.191 -0.191,-0.191Z" style="fill:#39ff14;"/><path d="M13.409,5.051l-0.42,-0.421l0.175,-0.175l0.421,0.421c0.15,-0.076 0.338,-0.051 0.464,0.075c0.156,0.157 0.156,0.411 -0,0.567c-0.157,0.156 -0.411,0.156 -0.567,-0c-0.126,-0.127 -0.151,-0.317 -0.073,-0.468Zm0.491,0.049c-0.075,-0.075 -0.196,-0.075 -0.27,-0c-0.075,0.075 -0.075,0.196 -0,0.27c0.075,0.075 0.196,0.075 0.27,0c0.075,-0.075 0.075,-0.196 0,-0.27Z" style="fill:#39ff14;"/><path d="M13.584,3.04l-0.459,0.459l-0.175,-0.175l0.459,-0.46c-0.076,-0.15 -0.051,-0.338 0.075,-0.464c0.157,-0.157 0.411,-0.157 0.567,-0c0.157,0.157 0.157,0.411 0,0.567c-0.126,0.127 -0.317,0.151 -0.468,0.073Zm0.049,-0.491c-0.075,0.075 -0.075,0.196 0,0.27c0.075,0.075 0.196,0.075 0.27,-0c0.075,-0.075 0.075,-0.196 -0,-0.27c-0.075,-0.075 -0.196,-0.075 -0.27,0Z" style="fill:#39ff14;"/><path d="M12.639,2.517l0.005,0.827l-0.248,0.001l-0.005,-0.829c-0.16,-0.052 -0.276,-0.202 -0.277,-0.379c-0.001,-0.221 0.177,-0.402 0.399,-0.403c0.221,-0.001 0.402,0.177 0.403,0.399c0.001,0.179 -0.115,0.331 -0.277,0.384Zm-0.315,-0.38c0.001,0.105 0.087,0.191 0.192,0.19c0.105,-0.001 0.191,-0.087 0.19,-0.192c-0.001,-0.105 -0.087,-0.191 -0.192,-0.19c-0.105,0.001 -0.191,0.087 -0.19,0.192Z" style="fill:#39ff14;"/><path d="M11.598,2.828l0.477,0.447l-0.17,0.18l-0.478,-0.448c-0.148,0.08 -0.337,0.061 -0.466,-0.061c-0.161,-0.152 -0.169,-0.406 -0.017,-0.567c0.152,-0.161 0.406,-0.169 0.567,-0.017c0.13,0.123 0.16,0.312 0.087,0.465Zm-0.493,-0.034c0.077,0.072 0.198,0.069 0.27,-0.008c0.072,-0.077 0.069,-0.198 -0.008,-0.27c-0.077,-0.072 -0.198,-0.069 -0.27,0.008c-0.072,0.077 -0.069,0.198 0.008,0.27Z" style="fill:#39ff14;"/></g><path d="M1.332,11.674l0,-6.459c0,-0.704 0.572,-1.276 1.276,-1.276l6.362,0c0.105,0.069 0.192,0.133 0.192,0.133l0.85,0.71c0,0 -7.181,0.003 -7.425,-0.004c-0.243,-0.007 -0.34,0.107 -0.398,0.174c-0.058,0.067 -0.086,0.133 -0.039,0.383c0.047,0.25 0.337,0.259 0.486,0.259l7.212,0.002l-3.296,3.854c0,0 -0.762,-0.649 -1.055,-0.908c-0.293,-0.259 -0.582,-0.267 -0.811,-0.28c-0.229,-0.013 -0.418,0.102 -0.514,0.144c-0.096,0.042 -0.393,0.37 -0.393,0.37l-2.448,2.898Zm11.42,-4.534c0,0.007 0,0.014 0,0.021l0,1.266c0,0 -1.464,0.002 -1.53,0.002c-0.066,0 -0.578,0.013 -0.892,0.314c-0.314,0.302 -0.394,0.334 -0.535,0.704c-0.141,0.37 -0.062,0.779 -0.032,0.875c0.03,0.096 0.259,0.772 0.71,0.969c0.451,0.197 0.541,0.222 0.907,0.222c0.366,0 1.372,-0.002 1.372,-0.002l0,1.478c0,0.704 -0.572,1.276 -1.276,1.276l-8.869,0c-0.026,0 -0.051,-0.001 -0.076,-0.002c-0.066,-0.035 -0.132,-0.084 -0.176,-0.151c-0.12,-0.183 -0.099,-0.38 -0.001,-0.495c0.098,-0.115 2.493,-2.941 2.493,-2.941c0,0 1.061,0.932 1.209,1.018c0.148,0.086 0.246,0.159 0.365,0.166c0.119,0.007 0.34,0.013 0.444,-0.011c0.104,-0.024 0.31,-0.106 0.449,-0.225c0.139,-0.119 1.343,-1.528 1.343,-1.528l3.231,-3.774c0,0 0.801,0.656 0.819,0.682c0.016,0.025 0.044,0.059 0.046,0.133Z" style="fill:#1680ff;"/><path d="M13.057,8.922c0.093,-0 0.182,0.037 0.247,0.102c0.066,0.066 0.102,0.154 0.102,0.247l-0,1.404c-0,0.093 -0.037,0.182 -0.102,0.247c-0.066,0.066 -0.154,0.102 -0.247,0.102l-1.803,0c-0.581,0 -1.051,-0.471 -1.051,-1.051c0,-0.581 0.471,-1.051 1.051,-1.051l1.803,0Zm-1.798,0.557c-0.273,0 -0.495,0.222 -0.495,0.495c0,0.273 0.222,0.495 0.495,0.495c0.273,0 0.495,-0.222 0.495,-0.495c0,-0.273 -0.222,-0.495 -0.495,-0.495Z" style="fill:#1680ff;"/><path d="M12.54,6.239l-0.698,-0.572c0,0 -4.572,5.314 -4.726,5.507c-0.127,0.16 -0.308,0.22 -0.417,0.235c-0.109,0.015 -0.38,-0.096 -0.38,-0.096l-1.535,-1.303l-3.179,3.769c-0.171,-0.217 -0.273,-0.491 -0.273,-0.788l0,-0.576c0.73,-0.865 2.868,-3.396 2.944,-3.476c0.091,-0.097 0.225,-0.2 0.428,-0.213c0.204,-0.013 0.384,0.117 0.384,0.117l1.509,1.278l4.393,-5.125l-0.649,-0.528l2.411,-0.835l-0.212,2.608Z" style="fill:#39ff14;"/></g></svg>