<?xml version="1.0" encoding="UTF-8" standalone="no"?><!DOCTYPE svg PUBLIC "-//W3C//DTD SVG 1.1//EN" "http://www.w3.org/Graphics/SVG/1.1/DTD/svg11.dtd"><svg width="100%" height="100%" viewBox="0 0 250 56" version="1.1" xmlns="http://www.w3.org/2000/svg" xmlns:xlink="http://www.w3.org/1999/xlink" xml:space="preserve" xmlns:serif="http://www.serif.com/" style="fill-rule:evenodd;clip-rule:evenodd;stroke-linejoin:round;stroke-miterlimit:2;"><rect id="Logo" x="0" y="0" width="250" height="55.083" style="fill:none;"/><g transform="matrix(0.778824,0,0,0.778824,-24.638843,4.54587)"><g transform="matrix(50,0,0,50,112.172901,49.121655)"><path d="M0.057,-0l0,-0.728l0.494,0l0,0.141l-0.322,0l0,0.184l0.291,0l0,0.138l-0.291,0l0,0.265l-0.172,-0Z" style="fill:#1680ff;fill-rule:nonzero;"/></g><g transform="matrix(50,0,0,50,141.445362,49.121655)"><path d="M0.056,-0l0,-0.546l0.17,0l0,0.546l-0.17,-0Zm0.085,-0.61c-0.024,0 -0.045,-0.008 -0.062,-0.024c-0.017,-0.016 -0.026,-0.035 -0.026,-0.058c0,-0.023 0.009,-0.042 0.026,-0.058c0.017,-0.016 0.038,-0.024 0.062,-0.024c0.024,0 0.045,0.008 0.062,0.024c0.017,0.016 0.026,0.035 0.026,0.058c0,0.023 -0.009,0.042 -0.026,0.058c-0.017,0.016 -0.038,0.024 -0.062,0.024Z" style="fill:#1680ff;fill-rule:nonzero;"/></g><g transform="matrix(50,0,0,50,155.605518,49.121655)"><path d="M0.227,-0.312l0,0.312l-0.17,-0l0,-0.546l0.16,0l0.003,0.138l-0.007,0c0.013,-0.044 0.034,-0.079 0.063,-0.105c0.029,-0.026 0.067,-0.04 0.115,-0.04c0.038,0 0.072,0.008 0.1,0.025c0.028,0.017 0.05,0.041 0.066,0.072c0.016,0.031 0.023,0.067 0.023,0.108l0,0.347l-0.17,-0l0,-0.314c0,-0.031 -0.008,-0.055 -0.023,-0.072c-0.016,-0.017 -0.037,-0.026 -0.065,-0.026c-0.018,0 -0.035,0.004 -0.049,0.012c-0.014,0.008 -0.025,0.02 -0.033,0.035c-0.008,0.015 -0.012,0.033 -0.012,0.055Z" style="fill:#1680ff;fill-rule:nonzero;"/></g><g transform="matrix(50,0,0,50,187.368214,49.121655)"><path d="M0.338,0.01c-0.061,0 -0.113,-0.009 -0.158,-0.027c-0.045,-0.018 -0.08,-0.046 -0.105,-0.083c-0.025,-0.037 -0.038,-0.084 -0.039,-0.14l0.165,0c0.002,0.023 0.008,0.043 0.019,0.059c0.011,0.016 0.027,0.028 0.047,0.036c0.02,0.008 0.043,0.012 0.069,0.012c0.024,0 0.045,-0.003 0.062,-0.01c0.017,-0.007 0.03,-0.016 0.04,-0.027c0.009,-0.012 0.014,-0.025 0.014,-0.041c0,-0.014 -0.004,-0.026 -0.013,-0.036c-0.008,-0.01 -0.021,-0.018 -0.039,-0.026c-0.017,-0.007 -0.039,-0.014 -0.066,-0.02l-0.077,-0.018c-0.063,-0.014 -0.112,-0.038 -0.148,-0.07c-0.036,-0.033 -0.054,-0.076 -0.054,-0.131c0,-0.045 0.012,-0.084 0.037,-0.118c0.024,-0.034 0.058,-0.06 0.1,-0.079c0.043,-0.019 0.091,-0.028 0.146,-0.028c0.056,0 0.105,0.01 0.146,0.029c0.041,0.019 0.073,0.046 0.096,0.08c0.023,0.034 0.034,0.074 0.035,0.119l-0.166,0c-0.002,-0.027 -0.013,-0.047 -0.032,-0.062c-0.019,-0.015 -0.046,-0.022 -0.081,-0.022c-0.023,0 -0.042,0.003 -0.058,0.009c-0.016,0.006 -0.027,0.014 -0.035,0.025c-0.008,0.011 -0.012,0.023 -0.012,0.036c0,0.015 0.004,0.027 0.013,0.038c0.009,0.01 0.021,0.019 0.038,0.026c0.016,0.007 0.035,0.013 0.057,0.018l0.063,0.014c0.035,0.008 0.066,0.018 0.094,0.031c0.028,0.013 0.051,0.028 0.07,0.046c0.019,0.018 0.034,0.038 0.044,0.062c0.01,0.023 0.015,0.05 0.015,0.079c0,0.046 -0.011,0.085 -0.034,0.118c-0.023,0.033 -0.056,0.058 -0.099,0.076c-0.043,0.018 -0.094,0.026 -0.155,0.026Z" style="fill:#39ff14;fill-rule:nonzero;"/></g><g transform="matrix(50,0,0,50,220.376026,49.121655)"><path d="M0.056,-0l0,-0.546l0.157,0l0.01,0.141l-0.012,0c0.008,-0.035 0.021,-0.064 0.038,-0.086c0.017,-0.022 0.036,-0.038 0.059,-0.048c0.022,-0.01 0.046,-0.015 0.071,-0.015c0.039,0 0.07,0.013 0.094,0.038c0.024,0.025 0.042,0.066 0.056,0.123l-0.019,0c0.009,-0.038 0.023,-0.069 0.042,-0.093c0.019,-0.024 0.041,-0.041 0.066,-0.052c0.025,-0.011 0.052,-0.016 0.079,-0.016c0.034,0 0.064,0.007 0.091,0.022c0.026,0.015 0.047,0.036 0.062,0.064c0.015,0.028 0.022,0.061 0.022,0.099l0,0.368l-0.17,-0l0,-0.33c0,-0.028 -0.007,-0.048 -0.022,-0.063c-0.014,-0.014 -0.033,-0.021 -0.055,-0.021c-0.016,0 -0.03,0.004 -0.042,0.011c-0.012,0.007 -0.021,0.017 -0.027,0.03c-0.006,0.013 -0.009,0.028 -0.009,0.046l0,0.327l-0.164,-0l0,-0.332c0,-0.025 -0.007,-0.045 -0.021,-0.06c-0.014,-0.015 -0.032,-0.022 -0.055,-0.022c-0.015,0 -0.029,0.004 -0.041,0.011c-0.012,0.007 -0.021,0.017 -0.028,0.03c-0.007,0.013 -0.01,0.029 -0.01,0.048l0,0.324l-0.17,-0Z" style="fill:#39ff14;fill-rule:nonzero;"/></g><g transform="matrix(50,0,0,50,266.738331,49.121655)"><path d="M0.209,0.01c-0.035,0 -0.066,-0.006 -0.093,-0.018c-0.027,-0.012 -0.048,-0.03 -0.064,-0.054c-0.015,-0.024 -0.023,-0.054 -0.023,-0.09c0,-0.03 0.005,-0.056 0.016,-0.077c0.011,-0.021 0.025,-0.038 0.044,-0.051c0.019,-0.013 0.04,-0.023 0.065,-0.03c0.024,-0.007 0.05,-0.011 0.078,-0.014c0.031,-0.003 0.056,-0.006 0.075,-0.009c0.019,-0.003 0.033,-0.008 0.041,-0.014c0.009,-0.006 0.013,-0.015 0.013,-0.026l0,-0.002c0,-0.013 -0.003,-0.023 -0.009,-0.032c-0.006,-0.009 -0.014,-0.015 -0.025,-0.02c-0.011,-0.005 -0.024,-0.007 -0.04,-0.007c-0.016,0 -0.03,0.002 -0.042,0.007c-0.012,0.005 -0.022,0.011 -0.03,0.02c-0.008,0.008 -0.013,0.018 -0.016,0.03l-0.155,-0.02c0.007,-0.031 0.021,-0.059 0.043,-0.082c0.021,-0.024 0.049,-0.042 0.083,-0.055c0.034,-0.013 0.074,-0.02 0.119,-0.02c0.034,0 0.065,0.004 0.095,0.012c0.029,0.008 0.055,0.02 0.077,0.035c0.022,0.015 0.039,0.035 0.052,0.057c0.012,0.023 0.019,0.049 0.019,0.078l0,0.371l-0.16,-0l0,-0.076l-0.004,0c-0.01,0.019 -0.022,0.034 -0.037,0.047c-0.015,0.013 -0.033,0.022 -0.053,0.029c-0.02,0.007 -0.043,0.01 -0.068,0.01Zm0.052,-0.113c0.019,0 0.036,-0.004 0.052,-0.012c0.015,-0.008 0.028,-0.018 0.037,-0.032c0.009,-0.014 0.014,-0.029 0.014,-0.047l0,-0.052c-0.005,0.002 -0.011,0.005 -0.018,0.007c-0.007,0.002 -0.015,0.004 -0.024,0.006c-0.009,0.002 -0.018,0.004 -0.026,0.005c-0.009,0.001 -0.017,0.003 -0.025,0.004c-0.017,0.002 -0.031,0.006 -0.043,0.012c-0.012,0.006 -0.021,0.013 -0.027,0.022c-0.006,0.009 -0.009,0.019 -0.009,0.031c0,0.012 0.003,0.022 0.009,0.031c0.006,0.008 0.014,0.015 0.025,0.019c0.01,0.004 0.023,0.006 0.036,0.006Z" style="fill:#39ff14;fill-rule:nonzero;"/></g><g transform="matrix(50,0,0,50,296.157276,49.121655)"><path d="M0.056,-0l0,-0.546l0.165,0l0,0.1l0.006,0c0.01,-0.036 0.026,-0.063 0.049,-0.08c0.023,-0.018 0.049,-0.026 0.079,-0.026c0.008,0 0.016,0.001 0.025,0.002c0.009,0.001 0.016,0.003 0.024,0.005l0,0.148c-0.008,-0.003 -0.019,-0.005 -0.032,-0.006c-0.013,-0.001 -0.025,-0.002 -0.036,-0.002c-0.021,0 -0.04,0.005 -0.056,0.014c-0.017,0.009 -0.03,0.022 -0.039,0.038c-0.009,0.016 -0.014,0.035 -0.014,0.057l0,0.298l-0.17,-0Z" style="fill:#39ff14;fill-rule:nonzero;"/></g><g transform="matrix(50,0,0,50,318.203174,49.121655)"><path d="M0.351,-0.546l0,0.126l-0.341,0l0,-0.126l0.341,0Zm-0.268,-0.13l0.17,0l0,0.509c0,0.015 0.003,0.025 0.01,0.032c0.007,0.007 0.018,0.011 0.033,0.011c0.006,0 0.014,-0.001 0.025,-0.002c0.011,-0.001 0.018,-0.003 0.023,-0.004l0.022,0.124c-0.019,0.005 -0.038,0.009 -0.056,0.011c-0.018,0.002 -0.035,0.003 -0.051,0.003c-0.058,0 -0.102,-0.014 -0.132,-0.041c-0.03,-0.027 -0.045,-0.067 -0.045,-0.119l0,-0.524Z" style="fill:#39ff14;fill-rule:nonzero;"/></g></g><g id="icon2"><g id="Sirkuit"><path d="M57.442,14.403l-2.867,0l0,-0.859l2.872,-0c0.183,-0.553 0.705,-0.953 1.32,-0.953c0.767,0 1.39,0.623 1.39,1.39c0,0.767 -0.623,1.39 -1.39,1.39c-0.62,0 -1.146,-0.407 -1.325,-0.968Zm1.325,-1.084c-0.365,0 -0.662,0.297 -0.662,0.662c0,0.365 0.297,0.662 0.662,0.662c0.365,0 0.662,-0.297 0.662,-0.662c0,-0.365 -0.297,-0.662 -0.662,-0.662Z" style="fill:#39ff14;"/><path d="M55.794,17.699l-1.457,-1.457l0.607,-0.607l1.46,1.461c0.521,-0.262 1.173,-0.175 1.607,0.259c0.542,0.543 0.542,1.423 -0,1.966c-0.543,0.542 -1.423,0.542 -1.966,-0c-0.438,-0.438 -0.522,-1.098 -0.252,-1.621Zm1.703,0.17c-0.258,-0.258 -0.678,-0.259 -0.937,-0c-0.258,0.258 -0.259,0.678 -0,0.937c0.258,0.258 0.678,0.259 0.937,0c0.258,-0.258 0.259,-0.678 0,-0.937Z" style="fill:#39ff14;"/><path d="M56.401,10.732l-1.589,1.589l-0.607,-0.607l1.592,-1.593c-0.262,-0.521 -0.175,-1.173 0.259,-1.607c0.542,-0.542 1.423,-0.542 1.966,-0c0.542,0.542 0.542,1.423 0,1.966c-0.438,0.438 -1.098,0.523 -1.621,0.252Zm0.17,-1.703c-0.258,0.258 -0.258,0.678 0,0.937c0.258,0.258 0.678,0.258 0.937,-0c0.258,-0.258 0.258,-0.678 -0,-0.937c-0.258,-0.258 -0.678,-0.258 -0.937,0Z" style="fill:#39ff14;"/><path d="M53.123,8.917l0.016,2.867l-0.859,0.005l-0.016,-2.872c-0.555,-0.18 -0.957,-0.7 -0.961,-1.314c-0.004,-0.767 0.615,-1.393 1.382,-1.398c0.767,-0.004 1.393,0.615 1.398,1.382c0.004,0.62 -0.4,1.148 -0.96,1.33Zm-1.092,-1.318c0.002,0.365 0.301,0.661 0.666,0.658c0.365,-0.002 0.661,-0.301 0.658,-0.666c-0.002,-0.365 -0.301,-0.661 -0.666,-0.658c-0.365,0.002 -0.661,0.301 -0.658,0.666Z" style="fill:#39ff14;"/><path d="M49.518,9.995l1.654,1.549l-0.589,0.625l-1.657,-1.552c-0.513,0.277 -1.167,0.211 -1.614,-0.211c-0.559,-0.526 -0.585,-1.406 -0.059,-1.965c0.526,-0.559 1.406,-0.585 1.965,-0.059c0.451,0.425 0.555,1.082 0.301,1.613Zm-1.708,-0.118c0.266,0.251 0.686,0.238 0.936,-0.028c0.251,-0.266 0.238,-0.686 -0.028,-0.936c-0.266,-0.251 -0.686,-0.238 -0.936,0.028c-0.251,0.266 -0.238,0.686 0.028,0.936Z" style="fill:#39ff14;"/></g><path d="M13.938,40.651l0,-22.386c0,-2.44 1.981,-4.421 4.421,-4.421l22.049,0c0.363,0.237 0.667,0.461 0.667,0.461l2.947,2.462c0,0 -24.888,0.009 -25.731,-0.014c-0.843,-0.024 -1.177,0.372 -1.379,0.603c-0.202,0.231 -0.298,0.459 -0.136,1.327c0.162,0.868 1.17,0.897 1.684,0.897l24.994,0.007l-11.423,13.357c0,0 -2.641,-2.251 -3.656,-3.148c-1.015,-0.897 -2.015,-0.927 -2.81,-0.971c-0.794,-0.044 -1.449,0.353 -1.78,0.5c-0.331,0.147 -1.363,1.282 -1.363,1.282l-8.485,10.044Zm39.578,-15.711c0,0.024 0,0.049 0,0.074l0,4.389c0,0 -5.073,0.007 -5.303,0.007c-0.23,0 -2.002,0.044 -3.092,1.09c-1.09,1.045 -1.364,1.157 -1.854,2.439c-0.489,1.283 -0.215,2.699 -0.111,3.032c0.104,0.334 0.897,2.677 2.462,3.359c1.564,0.682 1.876,0.771 3.144,0.771c1.268,0 4.755,-0.007 4.755,-0.007l0,5.121c0,2.44 -1.981,4.421 -4.421,4.421l-30.736,0c-0.088,0 -0.176,-0.003 -0.264,-0.008c-0.229,-0.121 -0.457,-0.291 -0.609,-0.522c-0.415,-0.633 -0.344,-1.316 -0.005,-1.716c0.339,-0.4 8.638,-10.193 8.638,-10.193c0,0 3.678,3.23 4.19,3.528c0.512,0.297 0.854,0.55 1.265,0.576c0.411,0.025 1.177,0.044 1.537,-0.038c0.361,-0.082 1.076,-0.367 1.556,-0.778c0.481,-0.411 4.654,-5.294 4.654,-5.294l11.196,-13.078c0,0 2.777,2.272 2.837,2.365c0.055,0.085 0.151,0.203 0.159,0.462Z" style="fill:#1680ff;"/><path d="M54.574,31.116c0.321,-0 0.629,0.128 0.856,0.355c0.227,0.227 0.355,0.535 0.355,0.856l-0,4.866c-0,0.321 -0.128,0.629 -0.355,0.856c-0.227,0.227 -0.535,0.355 -0.856,0.355l-6.249,0c-2.012,0 -3.644,-1.631 -3.644,-3.644c0,-2.012 1.631,-3.644 3.644,-3.644l6.249,0Zm-6.233,1.932c-0.946,0 -1.714,0.768 -1.714,1.714c0,0.946 0.768,1.714 1.714,1.714c0.946,0 1.714,-0.768 1.714,-1.714c0,-0.946 -0.768,-1.714 -1.714,-1.714Z" style="fill:#1680ff;"/><path d="M52.78,21.818l-2.42,-1.983c0,0 -15.846,18.416 -16.377,19.085c-0.439,0.553 -1.067,0.763 -1.444,0.814c-0.377,0.051 -1.315,-0.334 -1.315,-0.334l-5.321,-4.517l-11.019,13.062c-0.592,-0.752 -0.945,-1.701 -0.945,-2.731l0,-1.998c2.53,-2.996 9.939,-11.768 10.201,-12.047c0.316,-0.336 0.779,-0.692 1.484,-0.739c0.706,-0.047 1.329,0.406 1.329,0.406l5.23,4.428l15.226,-17.762l-2.248,-1.828l8.356,-2.894l-0.736,9.038Z" style="fill:#39ff14;"/></g></svg>