<?xml version="1.0" encoding="UTF-8" standalone="no"?>
<!DOCTYPE svg PUBLIC "-//W3C//DTD SVG 1.1//EN" "http://www.w3.org/Graphics/SVG/1.1/DTD/svg11.dtd">
<svg width="100%" height="100%" viewBox="0 0 250 56" version="1.1" xmlns="http://www.w3.org/2000/svg" xmlns:xlink="http://www.w3.org/1999/xlink" xml:space="preserve" xmlns:serif="http://www.serif.com/" style="fill-rule:evenodd;clip-rule:evenodd;stroke-linejoin:round;stroke-miterlimit:2;">
    <g transform="matrix(1,0,0,1,-1.686151,-60.328234)">
        <g id="Logo" transform="matrix(1,0,0,0.550828,-548.313849,60.328234)">
            <rect x="550" y="0" width="250" height="100" style="fill:none;"/>
            <g transform="matrix(0.778824,0,0,1.413916,529.194015,8.270072)">
                <g transform="matrix(50,0,0,50,112.172901,49.121655)">
                    <path d="M0.057,-0L0.057,-0.728L0.551,-0.728L0.551,-0.587L0.229,-0.587L0.229,-0.402L0.519,-0.402L0.519,-0.265L0.229,-0.265L0.229,-0L0.057,-0Z" style="fill:rgb(22,128,255);fill-rule:nonzero;"/>
                </g>
                <g transform="matrix(50,0,0,50,141.445362,49.121655)">
                    <path d="M0.056,-0L0.056,-0.546L0.227,-0.546L0.227,-0L0.056,-0ZM0.141,-0.61C0.117,-0.61 0.096,-0.618 0.079,-0.634C0.062,-0.65 0.053,-0.669 0.053,-0.692C0.053,-0.715 0.062,-0.734 0.079,-0.75C0.096,-0.766 0.117,-0.774 0.141,-0.774C0.165,-0.774 0.186,-0.766 0.203,-0.75C0.221,-0.734 0.229,-0.715 0.229,-0.692C0.229,-0.669 0.221,-0.65 0.203,-0.634C0.186,-0.618 0.165,-0.61 0.141,-0.61Z" style="fill:rgb(22,128,255);fill-rule:nonzero;"/>
                </g>
                <g transform="matrix(50,0,0,50,155.605518,49.121655)">
                    <path d="M0.227,-0.312L0.227,-0L0.056,-0L0.056,-0.546L0.217,-0.546L0.22,-0.408L0.212,-0.408C0.226,-0.452 0.247,-0.487 0.275,-0.513C0.304,-0.539 0.342,-0.553 0.39,-0.553C0.428,-0.553 0.462,-0.544 0.49,-0.527C0.518,-0.51 0.54,-0.486 0.556,-0.456C0.571,-0.425 0.579,-0.389 0.579,-0.347L0.579,-0L0.409,-0L0.409,-0.314C0.409,-0.345 0.401,-0.369 0.385,-0.387C0.37,-0.404 0.348,-0.413 0.32,-0.413C0.301,-0.413 0.285,-0.409 0.271,-0.401C0.257,-0.393 0.246,-0.381 0.238,-0.366C0.231,-0.351 0.227,-0.333 0.227,-0.312Z" style="fill:rgb(22,128,255);fill-rule:nonzero;"/>
                </g>
                <g transform="matrix(50,0,0,50,187.368214,49.121655)">
                    <path d="M0.338,0.01C0.277,0.01 0.224,0.001 0.179,-0.018C0.134,-0.036 0.099,-0.064 0.074,-0.101C0.049,-0.138 0.036,-0.184 0.035,-0.24L0.2,-0.24C0.202,-0.217 0.209,-0.197 0.22,-0.181C0.231,-0.165 0.247,-0.153 0.267,-0.145C0.286,-0.137 0.309,-0.133 0.335,-0.133C0.359,-0.133 0.38,-0.137 0.397,-0.143C0.414,-0.15 0.427,-0.159 0.437,-0.171C0.446,-0.182 0.45,-0.196 0.45,-0.211C0.45,-0.225 0.446,-0.237 0.438,-0.247C0.429,-0.257 0.416,-0.265 0.399,-0.273C0.382,-0.28 0.36,-0.287 0.333,-0.293L0.256,-0.311C0.193,-0.325 0.144,-0.349 0.108,-0.381C0.072,-0.414 0.054,-0.457 0.054,-0.512C0.054,-0.557 0.066,-0.597 0.091,-0.63C0.115,-0.664 0.149,-0.69 0.191,-0.709C0.234,-0.728 0.283,-0.737 0.338,-0.737C0.394,-0.737 0.443,-0.728 0.484,-0.709C0.525,-0.69 0.557,-0.663 0.58,-0.629C0.603,-0.595 0.615,-0.555 0.615,-0.511L0.449,-0.511C0.447,-0.537 0.437,-0.558 0.417,-0.572C0.398,-0.587 0.371,-0.594 0.337,-0.594C0.314,-0.594 0.295,-0.591 0.279,-0.585C0.264,-0.579 0.252,-0.571 0.244,-0.56C0.236,-0.55 0.232,-0.537 0.232,-0.524C0.232,-0.509 0.237,-0.496 0.246,-0.486C0.255,-0.476 0.267,-0.467 0.283,-0.46C0.3,-0.454 0.318,-0.448 0.34,-0.443L0.403,-0.428C0.438,-0.421 0.469,-0.41 0.497,-0.398C0.524,-0.385 0.548,-0.369 0.567,-0.352C0.586,-0.334 0.6,-0.313 0.61,-0.29C0.62,-0.266 0.625,-0.24 0.625,-0.211C0.625,-0.165 0.614,-0.126 0.591,-0.092C0.568,-0.059 0.535,-0.034 0.492,-0.017C0.449,0.001 0.398,0.01 0.338,0.01Z" style="fill:rgb(57,255,20);fill-rule:nonzero;"/>
                </g>
                <g transform="matrix(50,0,0,50,220.376026,49.121655)">
                    <path d="M0.056,-0L0.056,-0.546L0.213,-0.546L0.223,-0.405L0.211,-0.405C0.219,-0.44 0.232,-0.468 0.249,-0.49C0.265,-0.512 0.285,-0.528 0.307,-0.538C0.33,-0.548 0.353,-0.553 0.378,-0.553C0.417,-0.553 0.448,-0.541 0.472,-0.516C0.496,-0.491 0.515,-0.449 0.528,-0.392L0.509,-0.392C0.517,-0.431 0.531,-0.462 0.55,-0.485C0.569,-0.509 0.591,-0.526 0.617,-0.537C0.642,-0.548 0.668,-0.553 0.696,-0.553C0.73,-0.553 0.76,-0.546 0.786,-0.531C0.813,-0.516 0.833,-0.495 0.848,-0.467C0.863,-0.44 0.871,-0.407 0.871,-0.368L0.871,-0L0.701,-0L0.701,-0.33C0.701,-0.357 0.693,-0.378 0.679,-0.392C0.664,-0.407 0.646,-0.414 0.624,-0.414C0.608,-0.414 0.594,-0.41 0.582,-0.403C0.57,-0.396 0.561,-0.386 0.555,-0.373C0.549,-0.36 0.545,-0.345 0.545,-0.327L0.545,-0L0.382,-0L0.382,-0.332C0.382,-0.357 0.375,-0.377 0.361,-0.392C0.347,-0.407 0.328,-0.414 0.306,-0.414C0.29,-0.414 0.277,-0.41 0.265,-0.403C0.253,-0.396 0.243,-0.386 0.237,-0.373C0.23,-0.36 0.227,-0.344 0.227,-0.324L0.227,-0L0.056,-0Z" style="fill:rgb(57,255,20);fill-rule:nonzero;"/>
                </g>
                <g transform="matrix(50,0,0,50,266.738331,49.121655)">
                    <path d="M0.209,0.01C0.174,0.01 0.143,0.004 0.116,-0.008C0.089,-0.02 0.068,-0.038 0.052,-0.062C0.037,-0.086 0.029,-0.116 0.029,-0.152C0.029,-0.182 0.034,-0.207 0.045,-0.228C0.056,-0.249 0.07,-0.266 0.089,-0.279C0.108,-0.292 0.13,-0.302 0.154,-0.308C0.179,-0.315 0.205,-0.32 0.232,-0.322C0.263,-0.325 0.288,-0.328 0.307,-0.331C0.326,-0.334 0.34,-0.338 0.349,-0.345C0.357,-0.351 0.362,-0.359 0.362,-0.371L0.362,-0.373C0.362,-0.385 0.359,-0.396 0.353,-0.405C0.347,-0.414 0.339,-0.42 0.328,-0.425C0.317,-0.429 0.303,-0.432 0.287,-0.432C0.272,-0.432 0.258,-0.429 0.246,-0.425C0.234,-0.42 0.224,-0.414 0.216,-0.405C0.208,-0.397 0.202,-0.387 0.199,-0.375L0.045,-0.396C0.052,-0.427 0.066,-0.454 0.087,-0.478C0.108,-0.501 0.136,-0.52 0.17,-0.533C0.204,-0.546 0.243,-0.553 0.289,-0.553C0.323,-0.553 0.355,-0.549 0.384,-0.541C0.413,-0.533 0.439,-0.521 0.461,-0.506C0.484,-0.49 0.501,-0.471 0.513,-0.448C0.526,-0.426 0.532,-0.4 0.532,-0.371L0.532,-0L0.372,-0L0.372,-0.076L0.367,-0.076C0.357,-0.058 0.345,-0.042 0.33,-0.029C0.315,-0.017 0.297,-0.007 0.277,-0C0.257,0.006 0.234,0.01 0.209,0.01ZM0.261,-0.103C0.28,-0.103 0.297,-0.107 0.313,-0.115C0.328,-0.123 0.34,-0.133 0.349,-0.147C0.359,-0.161 0.363,-0.176 0.363,-0.194L0.363,-0.247C0.358,-0.244 0.352,-0.242 0.345,-0.239C0.337,-0.237 0.329,-0.235 0.321,-0.233C0.312,-0.231 0.303,-0.23 0.294,-0.228C0.285,-0.227 0.277,-0.225 0.269,-0.224C0.252,-0.222 0.238,-0.218 0.227,-0.212C0.215,-0.207 0.206,-0.2 0.2,-0.191C0.194,-0.182 0.191,-0.172 0.191,-0.159C0.191,-0.147 0.194,-0.137 0.2,-0.129C0.206,-0.12 0.214,-0.114 0.224,-0.11C0.235,-0.105 0.247,-0.103 0.261,-0.103Z" style="fill:rgb(57,255,20);fill-rule:nonzero;"/>
                </g>
                <g transform="matrix(50,0,0,50,296.157276,49.121655)">
                    <path d="M0.056,-0L0.056,-0.546L0.221,-0.546L0.221,-0.446L0.227,-0.446C0.237,-0.482 0.253,-0.509 0.276,-0.527C0.299,-0.544 0.325,-0.553 0.355,-0.553C0.363,-0.553 0.371,-0.552 0.38,-0.551C0.388,-0.55 0.396,-0.549 0.403,-0.547L0.403,-0.399C0.395,-0.401 0.385,-0.404 0.371,-0.405C0.358,-0.406 0.346,-0.407 0.336,-0.407C0.315,-0.407 0.296,-0.403 0.28,-0.393C0.263,-0.384 0.25,-0.371 0.241,-0.355C0.231,-0.339 0.227,-0.32 0.227,-0.298L0.227,-0L0.056,-0Z" style="fill:rgb(57,255,20);fill-rule:nonzero;"/>
                </g>
                <g transform="matrix(50,0,0,50,318.203174,49.121655)">
                    <path d="M0.351,-0.546L0.351,-0.419L0.01,-0.419L0.01,-0.546L0.351,-0.546ZM0.082,-0.676L0.252,-0.676L0.252,-0.167C0.252,-0.153 0.256,-0.142 0.263,-0.135C0.27,-0.128 0.281,-0.124 0.296,-0.124C0.302,-0.124 0.31,-0.125 0.321,-0.126C0.331,-0.128 0.339,-0.129 0.343,-0.131L0.365,-0.006C0.346,-0.001 0.328,0.003 0.31,0.005C0.292,0.007 0.275,0.008 0.259,0.008C0.201,0.008 0.157,-0.006 0.127,-0.033C0.097,-0.06 0.082,-0.1 0.082,-0.152L0.082,-0.676Z" style="fill:rgb(57,255,20);fill-rule:nonzero;"/>
                </g>
            </g>
            <g id="icon2" transform="matrix(0.282451,0,0,0.309144,438.209397,-33.38546)">
                <g id="Sirkuit" transform="matrix(5.66413,0,0,9.395065,-3420.812969,-388.028934)">
                    <g transform="matrix(1,0,0,1,550,0)">
                        <path d="M157.757,61.799L155.965,61.799L155.965,61.262L157.76,61.262C157.875,60.916 158.201,60.666 158.585,60.666C159.064,60.666 159.454,61.055 159.454,61.535C159.454,62.014 159.064,62.404 158.585,62.404C158.197,62.404 157.869,62.149 157.757,61.799ZM158.585,61.121C158.357,61.121 158.171,61.306 158.171,61.535C158.171,61.763 158.357,61.949 158.585,61.949C158.813,61.949 158.999,61.763 158.999,61.535C158.999,61.306 158.813,61.121 158.585,61.121Z" style="fill:rgb(57,255,20);"/>
                    </g>
                    <g transform="matrix(0.707019,0.707195,-0.707195,0.707019,638.892811,-91.398996)">
                        <path d="M157.757,61.799L156.469,61.799L156.469,61.262L157.76,61.262C157.875,60.916 158.201,60.666 158.585,60.666C159.064,60.666 159.454,61.055 159.454,61.535C159.454,62.014 159.064,62.404 158.585,62.404C158.197,62.404 157.869,62.149 157.757,61.799ZM158.585,61.121C158.357,61.121 158.171,61.306 158.171,61.535C158.171,61.763 158.357,61.949 158.585,61.949C158.813,61.949 158.999,61.763 158.999,61.535C158.999,61.306 158.813,61.121 158.585,61.121Z" style="fill:rgb(57,255,20);"/>
                    </g>
                    <g transform="matrix(0.707087,-0.707127,0.707127,0.707087,551.858736,127.36156)">
                        <path d="M157.757,61.799L156.352,61.799L156.352,61.262L157.76,61.262C157.875,60.916 158.201,60.666 158.585,60.666C159.064,60.666 159.454,61.055 159.454,61.535C159.454,62.014 159.064,62.404 158.585,62.404C158.197,62.404 157.869,62.149 157.757,61.799ZM158.585,61.121C158.357,61.121 158.171,61.306 158.171,61.535C158.171,61.763 158.357,61.949 158.585,61.949C158.813,61.949 158.999,61.763 158.999,61.535C158.999,61.306 158.813,61.121 158.585,61.121Z" style="fill:rgb(57,255,20);"/>
                    </g>
                    <g transform="matrix(-0.005736,-0.999984,0.999984,-0.005736,644.164382,216.478689)">
                        <path d="M157.757,61.799L155.965,61.799L155.965,61.262L157.76,61.262C157.875,60.916 158.201,60.666 158.585,60.666C159.064,60.666 159.454,61.055 159.454,61.535C159.454,62.014 159.064,62.404 158.585,62.404C158.197,62.404 157.869,62.149 157.757,61.799ZM158.585,61.121C158.357,61.121 158.171,61.306 158.171,61.535C158.171,61.763 158.357,61.949 158.585,61.949C158.813,61.949 158.999,61.763 158.999,61.535C158.999,61.306 158.813,61.121 158.585,61.121Z" style="fill:rgb(57,255,20);"/>
                    </g>
                    <g transform="matrix(-0.728117,-0.685453,0.685453,-0.728117,775.309577,212.174824)">
                        <path d="M157.757,61.799L156.341,61.802L156.341,61.265L157.76,61.262C157.875,60.916 158.201,60.666 158.585,60.666C159.064,60.666 159.454,61.055 159.454,61.535C159.454,62.014 159.064,62.404 158.585,62.404C158.197,62.404 157.869,62.149 157.757,61.799ZM158.585,61.121C158.357,61.121 158.171,61.306 158.171,61.535C158.171,61.763 158.357,61.949 158.585,61.949C158.813,61.949 158.999,61.763 158.999,61.535C158.999,61.306 158.813,61.121 158.585,61.121Z" style="fill:rgb(57,255,20);"/>
                    </g>
                </g>
                <g transform="matrix(0.614492,0,0,1.049844,120.204058,-17.397263)">
                    <path d="M510.642,346.828L510.642,221.608C510.642,207.958 522.056,196.877 536.115,196.877L663.15,196.877C665.243,198.205 666.992,199.455 666.992,199.455L683.971,213.226C683.971,213.226 540.575,213.279 535.72,213.147C530.865,213.016 528.94,215.227 527.773,216.518C526.607,217.808 526.058,219.087 526.99,223.942C527.923,228.797 533.729,228.961 536.695,228.961L680.697,229.002L614.883,303.719C614.883,303.719 599.67,291.129 593.821,286.11C587.973,281.09 582.21,280.926 577.633,280.679C573.056,280.432 569.284,282.654 567.377,283.477C565.47,284.3 559.526,290.646 559.526,290.646L510.642,346.828ZM738.674,258.943C738.675,259.078 738.675,259.215 738.674,259.355L738.674,283.904C738.674,283.904 709.443,283.945 708.119,283.945C706.795,283.945 696.585,284.194 690.306,290.042C684.026,295.89 682.446,296.512 679.627,303.687C676.807,310.861 678.388,318.783 678.986,320.649C679.584,322.515 684.155,335.621 693.168,339.436C702.181,343.252 703.976,343.749 711.28,343.749C718.585,343.749 738.674,343.708 738.674,343.708L738.674,372.351C738.674,386 727.26,397.082 713.2,397.082L536.115,397.082C535.605,397.082 535.099,397.067 534.597,397.039C533.28,396.359 531.964,395.413 531.089,394.119C528.698,390.58 529.106,386.758 531.06,384.521C533.014,382.284 580.831,327.506 580.831,327.506C580.831,327.506 602.022,345.575 604.974,347.239C607.927,348.902 609.895,350.317 612.265,350.459C614.634,350.601 619.045,350.707 621.123,350.247C623.2,349.787 627.32,348.194 630.09,345.894C632.86,343.593 656.904,316.279 656.904,316.279L721.412,243.127C721.412,243.127 737.411,255.836 737.756,256.356C738.072,256.833 738.626,257.493 738.674,258.943Z" style="fill:rgb(22,128,255);"/>
                </g>
                <g transform="matrix(0.647741,0,0,1.217262,96.237816,-66.104259)">
                    <path d="M743.539,293.139C745.294,293.139 746.978,293.754 748.219,294.85C749.46,295.945 750.157,297.431 750.157,298.98L750.157,322.456C750.157,324.005 749.46,325.491 748.219,326.586C746.978,327.682 745.294,328.297 743.539,328.297L709.383,328.297C698.384,328.297 689.467,320.426 689.467,310.718C689.467,301.009 698.384,293.139 709.383,293.139L743.539,293.139ZM709.473,302.457C704.303,302.457 700.105,306.162 700.105,310.726C700.105,315.289 704.303,318.994 709.473,318.994C714.643,318.994 718.841,315.289 718.841,310.726C718.841,306.162 714.643,302.457 709.473,302.457Z" style="fill:rgb(22,128,255);"/>
                </g>
                <g transform="matrix(0.602884,0,0,1,128.779059,0)">
                    <path d="M734.35,236.12L720.136,224.477C720.136,224.477 627.081,332.627 623.96,336.552C621.38,339.799 617.695,341.031 615.481,341.333C613.266,341.635 607.756,339.371 607.756,339.371L576.509,312.846L511.802,389.553C508.326,385.136 506.251,379.565 506.251,373.513L506.251,361.781C521.109,344.186 564.619,292.674 566.158,291.038C568.014,289.064 570.731,286.973 574.875,286.699C579.018,286.425 582.681,289.084 582.681,289.084L613.392,315.084L702.808,210.779L689.605,200.042L738.674,183.047L734.35,236.12Z" style="fill:rgb(57,255,20);"/>
                </g>
            </g>
        </g>
    </g>
</svg>
